<mxfile host="app.diagrams.net" agent="Mozilla/5.0 (Windows NT 10.0; Win64; x64; rv:138.0) Gecko/20100101 Firefox/138.0" version="26.2.14">
  <diagram id="JovxsK0ZCmvFUZHK0RE9" name="Page-1">
    <mxGraphModel dx="1475" dy="797" grid="1" gridSize="10" guides="1" tooltips="1" connect="1" arrows="1" fold="1" page="1" pageScale="1" pageWidth="850" pageHeight="1100" math="0" shadow="0">
      <root>
        <mxCell id="0" />
        <mxCell id="1" parent="0" />
        <mxCell id="XM09jZqdRGEFuDEUpCy4-22" value="" style="shape=mxgraph.mockup.containers.marginRect;rectMarginTop=10;strokeColor=#666666;strokeWidth=1;dashed=0;rounded=1;arcSize=5;recursiveResize=0;html=1;whiteSpace=wrap;" parent="1" vertex="1">
          <mxGeometry x="145" y="774" width="245" height="190" as="geometry" />
        </mxCell>
        <mxCell id="XM09jZqdRGEFuDEUpCy4-23" value="&lt;b&gt;&lt;font style=&quot;font-size: 14px;&quot;&gt;3 - Testing&lt;/font&gt;&lt;/b&gt;" style="shape=rect;strokeColor=#b85450;fillColor=#f8cecc;strokeWidth=1;dashed=0;rounded=1;arcSize=20;fontSize=17;spacing=2;spacingTop=-2;align=left;autosize=1;spacingLeft=4;resizeWidth=0;resizeHeight=0;perimeter=none;html=1;whiteSpace=wrap;" parent="XM09jZqdRGEFuDEUpCy4-22" vertex="1">
          <mxGeometry x="5" width="90" height="30" as="geometry" />
        </mxCell>
        <mxCell id="XM09jZqdRGEFuDEUpCy4-6" value="&lt;font style=&quot;font-size: 14px;&quot; face=&quot;Helvetica&quot;&gt;Breakdown Detector&lt;/font&gt;" style="rounded=1;whiteSpace=wrap;html=1;fillColor=#f8cecc;strokeColor=#b85450;" parent="XM09jZqdRGEFuDEUpCy4-22" vertex="1">
          <mxGeometry x="10" y="40" width="220" height="50" as="geometry" />
        </mxCell>
        <mxCell id="XM09jZqdRGEFuDEUpCy4-98" style="edgeStyle=orthogonalEdgeStyle;rounded=0;orthogonalLoop=1;jettySize=auto;html=1;exitX=0.5;exitY=1;exitDx=0;exitDy=0;" parent="XM09jZqdRGEFuDEUpCy4-22" source="XM09jZqdRGEFuDEUpCy4-6" target="XM09jZqdRGEFuDEUpCy4-32" edge="1">
          <mxGeometry relative="1" as="geometry" />
        </mxCell>
        <mxCell id="XM09jZqdRGEFuDEUpCy4-32" value="Turn-level Breakdown Annotations" style="verticalLabelPosition=bottom;html=1;verticalAlign=top;align=center;strokeColor=#b85450;fillColor=#f8cecc;shape=mxgraph.azure.notification_topic;" parent="XM09jZqdRGEFuDEUpCy4-22" vertex="1">
          <mxGeometry x="93.75" y="110" width="52.5" height="50" as="geometry" />
        </mxCell>
        <mxCell id="XM09jZqdRGEFuDEUpCy4-27" value="" style="shape=mxgraph.mockup.containers.marginRect;rectMarginTop=10;strokeColor=#666666;strokeWidth=1;dashed=0;rounded=1;arcSize=5;recursiveResize=0;html=1;whiteSpace=wrap;" parent="1" vertex="1">
          <mxGeometry x="443" y="804" width="217" height="160" as="geometry" />
        </mxCell>
        <mxCell id="XM09jZqdRGEFuDEUpCy4-28" value="&lt;b&gt;&lt;font style=&quot;font-size: 14px;&quot;&gt;4 - Evaluation&lt;/font&gt;&lt;/b&gt;" style="shape=rect;strokeColor=#82b366;fillColor=#d5e8d4;strokeWidth=1;dashed=0;rounded=1;arcSize=20;fontSize=17;spacing=2;spacingTop=-2;align=left;autosize=1;spacingLeft=4;resizeWidth=0;resizeHeight=0;perimeter=none;html=1;whiteSpace=wrap;" parent="XM09jZqdRGEFuDEUpCy4-27" vertex="1">
          <mxGeometry x="5" width="120" height="30" as="geometry" />
        </mxCell>
        <mxCell id="XM09jZqdRGEFuDEUpCy4-29" value="&lt;font style=&quot;font-size: 14px;&quot; face=&quot;Helvetica&quot;&gt;Dialogue&lt;br&gt;Rater&lt;/font&gt;" style="rounded=1;whiteSpace=wrap;html=1;fillColor=#d5e8d4;strokeColor=#82b366;" parent="XM09jZqdRGEFuDEUpCy4-27" vertex="1">
          <mxGeometry x="46" y="40" width="125" height="50" as="geometry" />
        </mxCell>
        <mxCell id="XM09jZqdRGEFuDEUpCy4-30" value="Dialogue-level Ratings" style="verticalLabelPosition=bottom;shadow=0;dashed=0;align=center;html=1;verticalAlign=top;strokeWidth=1;shape=mxgraph.mockup.misc.rating;strokeColor=#82b366;fillColor=#d5e8d4;emptyFillColor=#ffffff;grade=4;ratingScale=5;ratingStyle=star;" parent="XM09jZqdRGEFuDEUpCy4-27" vertex="1">
          <mxGeometry x="42.75" y="110" width="131.5" height="19.33" as="geometry" />
        </mxCell>
        <mxCell id="XM09jZqdRGEFuDEUpCy4-114" style="edgeStyle=orthogonalEdgeStyle;rounded=0;orthogonalLoop=1;jettySize=auto;html=1;exitX=0.5;exitY=1;exitDx=0;exitDy=0;entryX=0.5;entryY=0;entryDx=0;entryDy=0;entryPerimeter=0;" parent="XM09jZqdRGEFuDEUpCy4-27" source="XM09jZqdRGEFuDEUpCy4-29" target="XM09jZqdRGEFuDEUpCy4-30" edge="1">
          <mxGeometry relative="1" as="geometry">
            <mxPoint x="-168" y="70" as="sourcePoint" />
            <mxPoint x="-168" y="90" as="targetPoint" />
          </mxGeometry>
        </mxCell>
        <mxCell id="XM09jZqdRGEFuDEUpCy4-4" value="&lt;font style=&quot;font-size: 14px;&quot; face=&quot;Helvetica&quot;&gt;&lt;b&gt;Target Dialogue System&lt;/b&gt;&lt;/font&gt;" style="rounded=1;whiteSpace=wrap;html=1;fillColor=#ffe6cc;strokeColor=#d79b00;" parent="1" vertex="1">
          <mxGeometry x="145" y="330" width="515" height="40" as="geometry" />
        </mxCell>
        <mxCell id="XM09jZqdRGEFuDEUpCy4-61" style="edgeStyle=orthogonalEdgeStyle;rounded=0;orthogonalLoop=1;jettySize=auto;html=1;entryX=1;entryY=0.5;entryDx=0;entryDy=0;" parent="1" source="XM09jZqdRGEFuDEUpCy4-9" edge="1">
          <mxGeometry relative="1" as="geometry">
            <mxPoint x="510" y="740" as="sourcePoint" />
            <mxPoint x="375" y="845" as="targetPoint" />
            <Array as="points">
              <mxPoint x="420" y="740" />
              <mxPoint x="420" y="845" />
            </Array>
          </mxGeometry>
        </mxCell>
        <mxCell id="XM09jZqdRGEFuDEUpCy4-108" style="edgeStyle=orthogonalEdgeStyle;rounded=0;orthogonalLoop=1;jettySize=auto;html=1;entryX=0.75;entryY=0;entryDx=0;entryDy=0;" parent="1" source="XM09jZqdRGEFuDEUpCy4-9" target="XM09jZqdRGEFuDEUpCy4-29" edge="1">
          <mxGeometry relative="1" as="geometry">
            <Array as="points">
              <mxPoint x="583" y="740" />
            </Array>
          </mxGeometry>
        </mxCell>
        <mxCell id="XM09jZqdRGEFuDEUpCy4-9" value="Dialogues" style="sketch=0;outlineConnect=0;fontColor=#232F3E;gradientColor=none;fillColor=#232F3D;strokeColor=none;dashed=0;verticalLabelPosition=bottom;verticalAlign=top;align=center;html=1;fontSize=12;fontStyle=0;aspect=fixed;pointerEvents=1;shape=mxgraph.aws4.documents;" parent="1" vertex="1">
          <mxGeometry x="510" y="698" width="57.44" height="70" as="geometry" />
        </mxCell>
        <mxCell id="XM09jZqdRGEFuDEUpCy4-76" style="edgeStyle=orthogonalEdgeStyle;rounded=0;orthogonalLoop=1;jettySize=auto;html=1;" parent="1" edge="1">
          <mxGeometry relative="1" as="geometry">
            <Array as="points">
              <mxPoint x="268" y="730" />
            </Array>
            <mxPoint x="267.5" y="710" as="sourcePoint" />
            <mxPoint x="510" y="730" as="targetPoint" />
          </mxGeometry>
        </mxCell>
        <mxCell id="XM09jZqdRGEFuDEUpCy4-11" value="" style="shape=mxgraph.mockup.containers.marginRect;rectMarginTop=10;strokeColor=#666666;strokeWidth=1;dashed=0;rounded=1;arcSize=5;recursiveResize=0;html=1;whiteSpace=wrap;" parent="1" vertex="1">
          <mxGeometry x="145" y="560" width="245" height="160" as="geometry" />
        </mxCell>
        <mxCell id="XM09jZqdRGEFuDEUpCy4-12" value="&lt;b&gt;&lt;font style=&quot;font-size: 14px;&quot;&gt;2 - User Simulation&lt;/font&gt;&lt;/b&gt;" style="shape=rect;strokeColor=#6c8ebf;fillColor=#dae8fc;strokeWidth=1;dashed=0;rounded=1;arcSize=20;fontSize=17;spacing=2;spacingTop=-2;align=left;autosize=1;spacingLeft=4;resizeWidth=0;resizeHeight=0;perimeter=none;html=1;whiteSpace=wrap;" parent="XM09jZqdRGEFuDEUpCy4-11" vertex="1">
          <mxGeometry x="5" width="150" height="30" as="geometry" />
        </mxCell>
        <mxCell id="XM09jZqdRGEFuDEUpCy4-13" value="&lt;font style=&quot;font-size: 14px;&quot; face=&quot;Helvetica&quot;&gt;Standard Persona Simulator&lt;br&gt;(Std-PerSim)&lt;/font&gt;" style="rounded=1;whiteSpace=wrap;html=1;fillColor=#dae8fc;strokeColor=#6c8ebf;" parent="XM09jZqdRGEFuDEUpCy4-11" vertex="1">
          <mxGeometry x="12.5" y="40" width="220" height="50" as="geometry" />
        </mxCell>
        <mxCell id="XM09jZqdRGEFuDEUpCy4-14" value="&lt;font style=&quot;font-size: 14px;&quot; face=&quot;Helvetica&quot;&gt;Challenging Persona Simulator&lt;br&gt;(Chall-PerSim)&lt;/font&gt;" style="rounded=1;whiteSpace=wrap;html=1;fillColor=#dae8fc;strokeColor=#6c8ebf;" parent="XM09jZqdRGEFuDEUpCy4-11" vertex="1">
          <mxGeometry x="12.5" y="100" width="220" height="50" as="geometry" />
        </mxCell>
        <mxCell id="XM09jZqdRGEFuDEUpCy4-40" value="" style="shape=mxgraph.mockup.containers.marginRect;rectMarginTop=10;strokeColor=#666666;strokeWidth=1;dashed=0;rounded=1;arcSize=5;recursiveResize=0;html=1;whiteSpace=wrap;" parent="1" vertex="1">
          <mxGeometry x="443" y="400" width="217" height="190" as="geometry" />
        </mxCell>
        <mxCell id="XM09jZqdRGEFuDEUpCy4-41" value="&lt;b&gt;&lt;font style=&quot;font-size: 14px;&quot;&gt;1 - Persona Generation&lt;/font&gt;&lt;/b&gt;" style="shape=rect;strokeColor=#9673a6;fillColor=#e1d5e7;strokeWidth=1;dashed=0;rounded=1;arcSize=20;fontSize=17;spacing=2;spacingTop=-2;align=left;autosize=1;spacingLeft=4;resizeWidth=0;resizeHeight=0;perimeter=none;html=1;whiteSpace=wrap;" parent="XM09jZqdRGEFuDEUpCy4-40" vertex="1">
          <mxGeometry x="5" width="180" height="30" as="geometry" />
        </mxCell>
        <mxCell id="XM09jZqdRGEFuDEUpCy4-71" style="edgeStyle=orthogonalEdgeStyle;rounded=0;orthogonalLoop=1;jettySize=auto;html=1;exitX=0.25;exitY=1;exitDx=0;exitDy=0;" parent="XM09jZqdRGEFuDEUpCy4-40" source="XM09jZqdRGEFuDEUpCy4-5" target="XM09jZqdRGEFuDEUpCy4-37" edge="1">
          <mxGeometry relative="1" as="geometry">
            <Array as="points">
              <mxPoint x="78" y="100" />
              <mxPoint x="42" y="100" />
            </Array>
          </mxGeometry>
        </mxCell>
        <mxCell id="XM09jZqdRGEFuDEUpCy4-72" style="edgeStyle=orthogonalEdgeStyle;rounded=0;orthogonalLoop=1;jettySize=auto;html=1;exitX=0.75;exitY=1;exitDx=0;exitDy=0;" parent="XM09jZqdRGEFuDEUpCy4-40" source="XM09jZqdRGEFuDEUpCy4-5" target="XM09jZqdRGEFuDEUpCy4-38" edge="1">
          <mxGeometry relative="1" as="geometry">
            <Array as="points">
              <mxPoint x="139" y="100" />
              <mxPoint x="172" y="100" />
            </Array>
          </mxGeometry>
        </mxCell>
        <mxCell id="XM09jZqdRGEFuDEUpCy4-5" value="&lt;font style=&quot;font-size: 14px;&quot; face=&quot;Helvetica&quot;&gt;Persona&lt;br&gt;Generator&lt;/font&gt;" style="rounded=1;whiteSpace=wrap;html=1;fillColor=#e1d5e7;strokeColor=#9673a6;" parent="XM09jZqdRGEFuDEUpCy4-40" vertex="1">
          <mxGeometry x="46" y="44.24" width="125" height="50" as="geometry" />
        </mxCell>
        <mxCell id="XM09jZqdRGEFuDEUpCy4-38" value="Challenging&lt;br&gt;Personas" style="sketch=0;outlineConnect=0;fontColor=#232F3E;gradientColor=none;fillColor=#232F3D;strokeColor=none;dashed=0;verticalLabelPosition=bottom;verticalAlign=top;align=center;html=1;fontSize=12;fontStyle=0;aspect=fixed;pointerEvents=1;shape=mxgraph.aws4.users;" parent="XM09jZqdRGEFuDEUpCy4-40" vertex="1">
          <mxGeometry x="157" y="112" width="30" height="30" as="geometry" />
        </mxCell>
        <mxCell id="XM09jZqdRGEFuDEUpCy4-37" value="Standard&lt;br&gt;Personas" style="sketch=0;outlineConnect=0;fontColor=#232F3E;gradientColor=none;fillColor=#232F3D;strokeColor=none;dashed=0;verticalLabelPosition=bottom;verticalAlign=top;align=center;html=1;fontSize=12;fontStyle=0;aspect=fixed;pointerEvents=1;shape=mxgraph.aws4.users;" parent="XM09jZqdRGEFuDEUpCy4-40" vertex="1">
          <mxGeometry x="27" y="112" width="30" height="30" as="geometry" />
        </mxCell>
        <mxCell id="XM09jZqdRGEFuDEUpCy4-45" value="" style="shape=mxgraph.mockup.containers.marginRect;rectMarginTop=10;strokeColor=#666666;strokeWidth=1;dashed=0;rounded=1;arcSize=5;recursiveResize=0;html=1;whiteSpace=wrap;" parent="1" vertex="1">
          <mxGeometry x="145" y="400" width="245" height="140" as="geometry" />
        </mxCell>
        <mxCell id="XM09jZqdRGEFuDEUpCy4-46" value="&lt;b&gt;&lt;font style=&quot;font-size: 14px;&quot;&gt;0 - Dialogue System Connection&lt;/font&gt;&lt;/b&gt;" style="shape=rect;strokeColor=#b46504;fillColor=#fad7ac;strokeWidth=1;dashed=0;rounded=1;arcSize=20;fontSize=17;spacing=2;spacingTop=-2;align=left;autosize=1;spacingLeft=4;resizeWidth=0;resizeHeight=0;perimeter=none;html=1;whiteSpace=wrap;" parent="XM09jZqdRGEFuDEUpCy4-45" vertex="1">
          <mxGeometry x="5" width="240" height="30" as="geometry" />
        </mxCell>
        <mxCell id="XM09jZqdRGEFuDEUpCy4-47" value="&lt;font style=&quot;font-size: 14px;&quot; face=&quot;Helvetica&quot;&gt;Dialogue System&lt;br&gt;Interface&lt;/font&gt;" style="rounded=1;whiteSpace=wrap;html=1;fillColor=#fad7ac;strokeColor=#b46504;" parent="XM09jZqdRGEFuDEUpCy4-45" vertex="1">
          <mxGeometry x="15" y="42.24" width="125" height="50" as="geometry" />
        </mxCell>
        <mxCell id="XM09jZqdRGEFuDEUpCy4-8" value="&lt;font face=&quot;Helvetica&quot;&gt;Dialogue System&lt;br&gt;Description&lt;/font&gt;" style="sketch=0;outlineConnect=0;fontColor=#232F3E;gradientColor=none;fillColor=#232F3D;strokeColor=none;dashed=0;verticalLabelPosition=bottom;verticalAlign=top;align=center;html=1;fontSize=12;fontStyle=0;aspect=fixed;pointerEvents=1;shape=mxgraph.aws4.document;" parent="XM09jZqdRGEFuDEUpCy4-45" vertex="1">
          <mxGeometry x="177" y="43.24" width="35.07" height="48" as="geometry" />
        </mxCell>
        <mxCell id="XM09jZqdRGEFuDEUpCy4-54" style="edgeStyle=orthogonalEdgeStyle;rounded=0;orthogonalLoop=1;jettySize=auto;html=1;entryX=0;entryY=0.5;entryDx=0;entryDy=0;" parent="1" source="XM09jZqdRGEFuDEUpCy4-8" target="XM09jZqdRGEFuDEUpCy4-5" edge="1">
          <mxGeometry relative="1" as="geometry">
            <Array as="points">
              <mxPoint x="410" y="470" />
            </Array>
          </mxGeometry>
        </mxCell>
        <mxCell id="XM09jZqdRGEFuDEUpCy4-67" style="edgeStyle=orthogonalEdgeStyle;rounded=0;orthogonalLoop=1;jettySize=auto;html=1;entryX=1;entryY=0.5;entryDx=0;entryDy=0;" parent="1" source="XM09jZqdRGEFuDEUpCy4-37" target="XM09jZqdRGEFuDEUpCy4-13" edge="1">
          <mxGeometry relative="1" as="geometry">
            <mxPoint x="400" y="630" as="targetPoint" />
            <Array as="points">
              <mxPoint x="450" y="525" />
              <mxPoint x="450" y="625" />
            </Array>
          </mxGeometry>
        </mxCell>
        <mxCell id="XM09jZqdRGEFuDEUpCy4-68" style="edgeStyle=orthogonalEdgeStyle;rounded=0;orthogonalLoop=1;jettySize=auto;html=1;entryX=1;entryY=0.5;entryDx=0;entryDy=0;" parent="1" source="XM09jZqdRGEFuDEUpCy4-38" target="XM09jZqdRGEFuDEUpCy4-14" edge="1">
          <mxGeometry relative="1" as="geometry">
            <mxPoint x="380" y="690" as="targetPoint" />
            <Array as="points">
              <mxPoint x="550" y="525" />
              <mxPoint x="550" y="685" />
            </Array>
          </mxGeometry>
        </mxCell>
        <mxCell id="XM09jZqdRGEFuDEUpCy4-101" style="edgeStyle=orthogonalEdgeStyle;rounded=0;orthogonalLoop=1;jettySize=auto;html=1;entryX=0.483;entryY=0;entryDx=0;entryDy=0;entryPerimeter=0;startArrow=classic;startFill=1;" parent="1" source="XM09jZqdRGEFuDEUpCy4-47" target="XM09jZqdRGEFuDEUpCy4-12" edge="1">
          <mxGeometry relative="1" as="geometry" />
        </mxCell>
        <mxCell id="XM09jZqdRGEFuDEUpCy4-106" style="edgeStyle=orthogonalEdgeStyle;rounded=0;orthogonalLoop=1;jettySize=auto;html=1;exitX=0.25;exitY=1;exitDx=0;exitDy=0;entryX=0.516;entryY=0;entryDx=0;entryDy=0;entryPerimeter=0;startArrow=classic;startFill=1;" parent="1" source="XM09jZqdRGEFuDEUpCy4-4" target="XM09jZqdRGEFuDEUpCy4-46" edge="1">
          <mxGeometry relative="1" as="geometry" />
        </mxCell>
        <mxCell id="XM09jZqdRGEFuDEUpCy4-107" style="edgeStyle=orthogonalEdgeStyle;rounded=0;orthogonalLoop=1;jettySize=auto;html=1;entryX=0.941;entryY=0.009;entryDx=0;entryDy=0;entryPerimeter=0;" parent="1" source="XM09jZqdRGEFuDEUpCy4-8" target="XM09jZqdRGEFuDEUpCy4-12" edge="1">
          <mxGeometry relative="1" as="geometry" />
        </mxCell>
      </root>
    </mxGraphModel>
  </diagram>
</mxfile>
